<svg id="Layer_1" data-name="Layer 1" xmlns="http://www.w3.org/2000/svg" viewBox="0 0 870.5 215.51"><defs><style>.cls-1,.cls-2{fill:#fabb7b;}.cls-2{font-size:300px;font-family:Chalkboard;}</style></defs><path class="cls-1" d="M852.67,125.73a8.2,8.2,0,0,0-15.21,6.15l9.66,23.89-28.69-12.64a8.17,8.17,0,0,0-6.52,0,79.17,79.17,0,0,1-31.22,6.3c-43.92,0-73.41-34.38-73.41-66.49,0-36.67,32.93-66.5,73.41-66.5S854.1,46.23,854.1,82.9a67.62,67.62,0,0,1-.73,9.4,8.2,8.2,0,0,0,16.22,2.42,82.4,82.4,0,0,0,.91-11.82c0-22.28-9.43-43.19-26.57-58.87C827,8.53,804.54,0,780.69,0s-46.32,8.53-63.25,24C702.13,38,693,56.23,691.2,75.84,671.94,88.59,660.52,109,660.52,131a63.65,63.65,0,0,0,12.58,38l-12,29.64A8.2,8.2,0,0,0,672,209.28l34.55-15.23a77.91,77.91,0,0,0,27.35,4.87,6.08,6.08,0,0,0,.61,0,77.58,77.58,0,0,0,38.59-10.46A70.62,70.62,0,0,0,798,164.27a93.94,93.94,0,0,0,17-4.74l44,19.4a8.2,8.2,0,0,0,10.91-10.58ZM733.93,182.5l-.33,0a61.69,61.69,0,0,1-24-4.9,8.19,8.19,0,0,0-6.53,0l-19.21,8.47,6.2-15.33a8.19,8.19,0,0,0-1.37-8.39A47.9,47.9,0,0,1,676.93,131,48.76,48.76,0,0,1,692.09,96.1a82.83,82.83,0,0,0,24.26,44.34A91.7,91.7,0,0,0,776,165.69,60.3,60.3,0,0,1,733.93,182.5Z"/><circle class="cls-1" cx="780.28" cy="83.25" r="8.2"/><circle class="cls-1" cx="813.08" cy="83.25" r="8.2"/><circle class="cls-1" cx="747.47" cy="83.25" r="8.2"/><text class="cls-2" transform="translate(-9.61 205.62)">MDJ</text></svg>