<svg xmlns="http://www.w3.org/2000/svg" viewBox="0 0 512 512"><defs><style>.cls-1{fill:#fabb7b;}</style></defs><g id="Layer_2" data-name="Layer 2"><g id="Layer_2-2" data-name="Layer 2"><path class="cls-1" d="M468.53,306.58a20,20,0,0,0-37.09,15L455,379.83,385,349a20,20,0,0,0-15.92-.09A192.82,192.82,0,0,1,293,364.27c-107.07,0-179-83.83-179-162.13C114,112.73,194.3,40,293,40s179,72.73,179,162.14a163.3,163.3,0,0,1-1.78,22.91,20,20,0,0,0,39.56,5.9A201.92,201.92,0,0,0,512,202.14c0-54.33-23-105.31-64.78-143.55C405.94,20.81,351.17,0,293,0S180.07,20.81,138.78,58.59c-37.33,34.17-59.66,78.52-64,126.34C27.84,216,0,265.85,0,319.52a155.16,155.16,0,0,0,30.67,92.72L1.46,484.5a20,20,0,0,0,26.61,25.8l84.23-37.13A190.22,190.22,0,0,0,179,485.05c.5,0,1,0,1.48-.07a189.35,189.35,0,0,0,94.1-25.51,172.08,172.08,0,0,0,60.5-58.92A230.07,230.07,0,0,0,376.63,389l107.3,47.3a20,20,0,0,0,26.61-25.8ZM179,445c-.27,0-.54,0-.81,0a149.92,149.92,0,0,1-58.43-12,20,20,0,0,0-15.92.1L57,453.83l15.11-37.37A20,20,0,0,0,68.79,396C50,373.89,40,347.45,40,319.52c0-32,13.45-62.24,37-85.2,7.32,39.92,28,78.12,59.16,108.12,38.79,37.33,90.1,59,145.51,61.56C255.63,429.61,218.4,445,179,445Z"/><circle class="cls-1" cx="292" cy="203" r="20"/><circle class="cls-1" cx="372" cy="203" r="20"/><circle class="cls-1" cx="212" cy="203" r="20"/></g></g></svg>