<svg xmlns="http://www.w3.org/2000/svg" viewBox="0 0 880.11 411.88"><defs><style>.cls-1,.cls-2{fill:#fabb7b;}.cls-2{font-size:300px;font-family:Chalkboard;}</style></defs><g id="Layer_2" data-name="Layer 2"><g id="Layer_1-2" data-name="Layer 1"><path class="cls-1" d="M862.28,174.25a8.2,8.2,0,1,0-15.2,6.15l9.66,23.9-28.69-12.65a8.19,8.19,0,0,0-6.53,0,79.17,79.17,0,0,1-31.22,6.3c-43.91,0-73.41-34.38-73.41-66.49,0-36.66,32.93-66.49,73.41-66.49s73.41,29.83,73.41,66.49a67.5,67.5,0,0,1-.73,9.4,8.2,8.2,0,0,0,16.22,2.42,82.29,82.29,0,0,0,.91-11.82c0-22.28-9.43-43.19-26.57-58.87-16.93-15.49-39.39-24-63.24-24s-46.32,8.54-63.25,24c-15.31,14-24.46,32.2-26.24,51.81-19.26,12.76-30.67,33.19-30.67,55.2a63.69,63.69,0,0,0,12.57,38l-12,29.63a8.2,8.2,0,0,0,10.92,10.58l34.54-15.22a78.15,78.15,0,0,0,27.36,4.87l.6,0A77.66,77.66,0,0,0,782.74,237a70.65,70.65,0,0,0,24.82-24.17,94.24,94.24,0,0,0,17-4.73l44,19.39a8.19,8.19,0,0,0,10.91-10.57ZM743.55,231l-.34,0a61.5,61.5,0,0,1-24-4.9,8.19,8.19,0,0,0-6.53,0l-19.21,8.46,6.2-15.32a8.21,8.21,0,0,0-1.36-8.4,47.84,47.84,0,0,1-11.81-31.36,48.8,48.8,0,0,1,15.16-34.94A82.86,82.86,0,0,0,726,189a91.72,91.72,0,0,0,59.68,25.25A60.3,60.3,0,0,1,743.55,231Z"/><circle class="cls-1" cx="789.89" cy="131.78" r="8.2"/><circle class="cls-1" cx="822.7" cy="131.78" r="8.2"/><circle class="cls-1" cx="757.08" cy="131.78" r="8.2"/><text class="cls-2" transform="translate(0 253.42)">MDJ</text></g></g></svg>